<?xml version="1.0" standalone="no"?>
<!DOCTYPE svg PUBLIC "-//W3C//DTD SVG 20010904//EN"
 "http://www.w3.org/TR/2001/REC-SVG-20010904/DTD/svg10.dtd">
<svg version="1.0" xmlns="http://www.w3.org/2000/svg"
 width="400.000000pt" height="400.000000pt" viewBox="0 0 400.000000 400.000000"
 preserveAspectRatio="xMidYMid meet">
<metadata>
Created by potrace 1.11, written by Peter Selinger 2001-2013
</metadata>
<g transform="translate(0.000000,400.000000) scale(0.100000,-0.100000)"
fill="#000000" stroke="none">
<path d="M1914 2793 c-75 -147 -93 -170 -119 -153 -20 13 -144 80 -149 80 -3
0 -3 -6 -1 -12 2 -7 6 -30 9 -50 3 -21 10 -57 15 -80 6 -24 12 -56 15 -73 3
-16 15 -77 27 -135 11 -58 23 -114 25 -125 6 -30 -5 -55 -25 -55 -10 0 -64 50
-121 110 -56 61 -105 108 -109 105 -3 -3 -15 -29 -27 -58 -12 -28 -29 -56 -36
-61 -9 -5 -62 1 -142 18 -71 15 -130 26 -132 24 -1 -2 17 -64 42 -138 24 -74
42 -140 39 -147 -2 -7 -29 -25 -59 -40 l-56 -28 230 -185 c127 -101 230 -190
230 -196 0 -7 -11 -44 -25 -82 -14 -38 -25 -73 -25 -77 0 -4 15 -5 33 -1 17 3
49 8 71 12 21 3 48 8 60 10 11 2 37 7 56 10 19 3 62 10 95 16 33 5 72 12 87
15 43 7 59 -28 53 -113 -2 -38 -7 -120 -10 -183 -3 -63 -6 -117 -7 -120 -4
-35 3 -41 48 -41 25 0 43 3 40 8 -2 4 -7 66 -11 137 -3 72 -8 161 -10 199 -4
52 -1 75 11 93 16 25 19 25 115 8 9 -2 32 -6 50 -9 19 -3 45 -8 59 -11 76 -15
212 -36 216 -33 2 2 -9 41 -24 87 -26 81 -26 83 -8 97 11 7 31 24 45 36 15 13
110 91 213 173 l187 150 -55 28 c-30 15 -57 33 -59 40 -3 7 15 73 39 147 25
74 43 136 41 138 -2 2 -28 -1 -59 -8 -31 -6 -58 -11 -61 -12 -2 0 -26 -5 -52
-12 -81 -21 -106 -16 -125 23 -10 19 -22 49 -28 65 l-11 31 -108 -114 c-78
-81 -113 -112 -127 -109 -28 5 -27 21 21 253 2 11 8 45 14 75 6 30 13 69 16
85 3 17 8 44 11 60 3 17 7 36 9 43 7 19 -2 15 -86 -33 -43 -25 -84 -42 -92
-40 -7 3 -49 75 -93 160 -43 85 -81 155 -84 155 -3 0 -41 -71 -86 -157z"/>
<path d="M760 2766 c-25 -24 -206 -206 -403 -405 l-359 -361 398 -400 c219
-220 403 -400 409 -400 6 0 50 40 98 89 l87 90 -302 306 c-167 169 -303 310
-303 315 0 5 136 146 303 315 l302 306 -92 94 -93 94 -45 -43z"/>
<path d="M3102 2716 l-93 -94 303 -307 c167 -169 303 -311 303 -315 0 -5 -126
-136 -280 -293 -154 -156 -290 -295 -302 -308 l-22 -24 93 -92 92 -92 24 23
c14 13 195 195 403 405 l379 381 -404 405 -403 405 -93 -94z"/>
</g>
</svg>
