<?xml version="1.0" standalone="no"?>
<!DOCTYPE svg PUBLIC "-//W3C//DTD SVG 20010904//EN"
 "http://www.w3.org/TR/2001/REC-SVG-20010904/DTD/svg10.dtd">
<svg version="1.0" xmlns="http://www.w3.org/2000/svg"
 width="512.000000pt" height="512.000000pt" viewBox="0 0 512.000000 512.000000"
 preserveAspectRatio="xMidYMid meet">
<metadata>
Created by potrace 1.11, written by Peter Selinger 2001-2013
</metadata>
<g transform="translate(0.000000,512.000000) scale(0.100000,-0.100000)"
fill="#000000" stroke="none">
<path d="M2466 4617 c-54 -106 -138 -272 -188 -370 -92 -183 -116 -213 -160
-202 -13 3 -104 53 -203 110 -99 57 -181 102 -183 100 -4 -3 11 -87 28 -160 9
-37 47 -229 56 -285 2 -14 7 -36 9 -50 3 -14 7 -36 10 -50 29 -152 59 -307 70
-360 8 -36 16 -81 20 -100 3 -19 10 -55 15 -80 27 -124 15 -156 -59 -165 -26
-4 -50 19 -223 205 -53 58 -113 123 -135 146 -21 22 -66 70 -99 107 l-62 67
-15 -33 c-20 -43 -48 -108 -82 -190 -41 -97 -57 -104 -183 -77 -124 27 -131
29 -167 36 -16 3 -34 7 -40 8 -5 2 -28 6 -50 10 -22 4 -53 12 -70 16 -16 5
-43 11 -60 14 -16 2 -52 9 -80 14 -27 6 -51 9 -53 7 -2 -2 24 -86 57 -187 162
-494 154 -465 139 -495 -14 -30 -41 -46 -181 -108 -83 -37 -87 -40 -68 -55 10
-8 182 -148 381 -310 200 -162 404 -328 454 -368 50 -41 108 -88 130 -105 21
-18 45 -36 52 -40 8 -4 21 -21 29 -37 14 -28 13 -35 -16 -117 -17 -48 -34 -99
-39 -113 -4 -14 -21 -60 -38 -102 -26 -68 -28 -78 -13 -78 9 0 82 12 161 26
148 26 229 40 289 50 18 3 43 8 55 10 23 4 66 12 106 18 14 2 63 11 110 20 47
8 103 18 125 22 22 3 56 9 76 13 73 16 139 -30 141 -100 1 -31 -5 -170 -17
-379 -8 -132 -14 -254 -20 -395 -3 -72 -8 -145 -10 -163 l-5 -33 102 3 c62 2
102 7 102 13 -1 6 -5 75 -8 155 -4 80 -9 181 -12 225 -2 44 -6 114 -8 155 -12
223 -19 359 -21 390 -2 30 16 95 30 108 2 2 20 10 40 16 35 13 44 12 155 -9
14 -3 77 -14 140 -25 63 -11 126 -22 139 -25 13 -2 117 -20 230 -40 113 -19
217 -37 231 -40 55 -12 110 -17 110 -9 0 8 -55 165 -70 199 -32 72 -59 170
-54 190 5 22 155 146 951 790 62 49 112 93 112 98 1 4 -29 21 -66 37 -134 60
-178 85 -192 111 -16 29 -21 9 124 454 41 126 73 230 72 231 -3 3 -182 -33
-397 -80 -230 -50 -233 -50 -258 -29 -18 15 -87 162 -133 282 l-10 24 -37 -41
c-20 -22 -85 -91 -143 -153 -58 -63 -131 -141 -161 -174 -154 -165 -165 -173
-214 -155 -39 15 -46 49 -28 143 9 45 18 93 20 107 3 14 20 104 39 200 19 96
37 191 40 210 3 19 8 42 10 50 2 8 6 26 9 40 2 14 12 63 21 110 9 47 19 96 21
110 3 14 16 81 29 149 14 68 24 126 22 127 -1 2 -88 -46 -192 -107 -104 -60
-198 -109 -207 -109 -9 0 -28 10 -42 23 -13 12 -106 184 -207 382 -100 198
-183 361 -183 362 -1 1 -46 -84 -100 -190z"/>
</g>
</svg>
